<svg xmlns="http://www.w3.org/2000/svg" viewBox="0 0 26.3 30"><title>Asset 2</title><path d="M24.7,20h.42a1.09,1.09,0,0,1,.84.36,1.24,1.24,0,0,1,.34.89,1.8,1.8,0,0,1-.33,1,1.58,1.58,0,0,1-.77.67c-.37.15-.89.35-1.58.58a36.12,36.12,0,0,1-4.18.92,34.56,34.56,0,0,1-6.29.58A36.78,36.78,0,0,1,7,24.49a27.7,27.7,0,0,1-4.46-1L1.1,23a1.69,1.69,0,0,1-.78-.69,1.93,1.93,0,0,1-.32-1,1.24,1.24,0,0,1,.34-.89A1.08,1.08,0,0,1,1.17,20H1.6l2.95-4.33L6.12,7.5A6.94,6.94,0,0,1,8,4a7.4,7.4,0,0,1,3.6-2.08l-.45-.8a.88.88,0,0,1,.08-.8A.83.83,0,0,1,12,0h2.35a.92.92,0,0,1,.73.26.74.74,0,0,1,.07.74l-.45.92A7.07,7.07,0,0,1,18.27,4a6.93,6.93,0,0,1,1.9,3.51l1.58,8.17ZM13.15,27.4a21.32,21.32,0,0,1-2.58-.15,4.51,4.51,0,0,0,1,2,2.11,2.11,0,0,0,1.58.76,2.07,2.07,0,0,0,1.57-.76,4.19,4.19,0,0,0,1-2A20.58,20.58,0,0,1,13.15,27.4Z" style="fill:#fff"/></svg>