<svg xmlns="http://www.w3.org/2000/svg" viewBox="0 0 153.94 45"><title>Asset 1</title><path d="M.65,31S36.65,6.9,75.23,6.9,149.59,28.7,152.14,30s-.18,1.64-5.36-.69S110.19,9.23,75.23,10,11.64,26.37,7.13,29.21-1.68,32.83.65,31Z" style="fill:#fff"/><path d="M122.44,31.24H119L131.63,0h4.65l12.55,31.24h-6.75L132.23,6.8Z" style="fill:#fff"/><path d="M14.88,3.13H11.79v12.5h3.09a6.25,6.25,0,0,0,0-12.5ZM18,18.78H11.79V31.27H5.54V0H18a9.38,9.38,0,0,1,0,18.75Z" style="fill:#fff"/><path d="M38.68,3.13H34.93v25h3.75c6.84,0,8.74-6.05,8.74-12.49S44.38,3.13,38.68,3.13Zm0,28.14h-10V0h10a15.62,15.62,0,0,1,0,31.24Z" style="fill:#fff"/><path d="M72.37,31.27,63.32,15.63h1.6a6.25,6.25,0,0,0,0-12.5h-3.1V31.27H55.57V0h12.5A9.39,9.39,0,0,1,71.92,18l7.69,13.3Z" style="fill:#fff"/><path d="M110.46,31.27v-21l-10.35,21h-3L86.46,10.63V31.27h-3.1V0h4.7l12.2,23.84L112,0h4.75V31.27Z" style="fill:#fff"/><path d="M60.76,36.82c1.68,0,2.71.76,2.71,2a1.77,1.77,0,0,1-1.41,1.8,2,2,0,0,1,1.73,2c0,1.39-1.12,2.22-2.94,2.22H57.26V36.82Zm-2.14,3.35h2.07c.87,0,1.39-.41,1.39-1.09s-.52-1-1.39-1H58.62Zm0,3.52h2.07c1.07,0,1.7-.42,1.7-1.18s-.63-1.14-1.7-1.14H58.62Z" style="fill:#fff"/><path d="M70.72,42.34H66.08A1.87,1.87,0,0,0,68,43.87a2.35,2.35,0,0,0,1.73-.72l.71.75a3.34,3.34,0,0,1-2.54,1,3,3,0,0,1-3.14-3.1,3,3,0,0,1,3.1-3.13C70,38.71,70.88,40.12,70.72,42.34Zm-1.16-1a1.57,1.57,0,0,0-1.7-1.59,1.74,1.74,0,0,0-1.8,1.59Z" style="fill:#fff"/><path d="M80.63,37.6l-.56,1.2a4.86,4.86,0,0,0-2.37-.75c-.79,0-1.31.3-1.31.84,0,1.76,4.36.82,4.35,3.72,0,1.44-1.27,2.33-3,2.33a5,5,0,0,1-3.3-1.28L75,42.49a4.26,4.26,0,0,0,2.74,1.17c.94,0,1.51-.36,1.51-1,0-1.8-4.36-.79-4.36-3.66,0-1.39,1.18-2.25,2.94-2.25A5.2,5.2,0,0,1,80.63,37.6Z" style="fill:#fff"/><path d="M85.93,44.15a2.5,2.5,0,0,1-2,.8,1.94,1.94,0,0,1-2.16-1.9c0-1.12.84-1.83,2.32-1.84h1.85V41c0-.77-.49-1.23-1.46-1.23a3.26,3.26,0,0,0-1.81.62l-.54-.92a4.46,4.46,0,0,1,2.64-.78c1.58,0,2.47.81,2.48,2.16v4h-1.3Zm0-1.41v-.57H84.25c-.86,0-1.26.23-1.26.82s.45.91,1.18.91C85.12,43.9,85.84,43.41,85.91,42.74Z" style="fill:#fff"/><path d="M90.57,38.27V39h1.61v1H90.57V44.9H89.26V40h-.81V39h.81v-.6a2,2,0,0,1,2.11-2.11,2.33,2.33,0,0,1,1.38.43l-.51,1a1.48,1.48,0,0,0-.84-.28A.77.77,0,0,0,90.57,38.27Z" style="fill:#fff"/><path d="M98.24,42.34H93.61a1.86,1.86,0,0,0,1.9,1.53,2.35,2.35,0,0,0,1.73-.72l.7.75a3.32,3.32,0,0,1-2.54,1,2.94,2.94,0,0,1-3.13-3.1,3,3,0,0,1,3.1-3.13C97.53,38.71,98.4,40.12,98.24,42.34Zm-1.15-1a1.58,1.58,0,0,0-1.71-1.59,1.74,1.74,0,0,0-1.8,1.59Z" style="fill:#fff"/><path d="M100.63,44.23a.73.73,0,1,1-1.45,0,.73.73,0,1,1,1.45,0Z" style="fill:#fff"/><path d="M108.73,36.82c1.67,0,2.71.76,2.71,2a1.77,1.77,0,0,1-1.42,1.8,2,2,0,0,1,1.73,2c0,1.39-1.12,2.22-2.94,2.22h-3.59V36.82Zm-2.15,3.35h2.08c.86,0,1.38-.41,1.38-1.09s-.52-1-1.38-1h-2.08Zm0,3.52h2.08c1.06,0,1.69-.42,1.69-1.18s-.63-1.14-1.69-1.14h-2.08Z" style="fill:#fff"/><path d="M118.68,42.34H114A1.88,1.88,0,0,0,116,43.87a2.37,2.37,0,0,0,1.73-.72l.7.75a3.34,3.34,0,0,1-2.54,1,2.94,2.94,0,0,1-3.13-3.1,3,3,0,0,1,3.1-3.13C118,38.71,118.84,40.12,118.68,42.34Zm-1.15-1a1.58,1.58,0,0,0-1.71-1.59,1.74,1.74,0,0,0-1.8,1.59Z" style="fill:#fff"/><path d="M130,44.9l-1.92-6.3-1.94,6.3h-1.4l-2.68-8.08h1.47l2,6.57,2-6.55,1.33,0,2,6.57,2-6.57h1.41l-2.7,8.08Z" style="fill:#fff"/><path d="M139.76,42.34h-4.64A1.88,1.88,0,0,0,137,43.87a2.37,2.37,0,0,0,1.73-.72l.7.75a3.34,3.34,0,0,1-2.54,1,2.94,2.94,0,0,1-3.13-3.1,3,3,0,0,1,3.1-3.13C139,38.71,139.92,40.12,139.76,42.34Zm-1.15-1a1.58,1.58,0,0,0-1.71-1.59,1.74,1.74,0,0,0-1.8,1.59Z" style="fill:#fff"/><path d="M141.2,44.9V36.34h1.33V44.9Z" style="fill:#fff"/><path d="M144.6,44.9V36.34h1.33V44.9Z" style="fill:#fff"/><path d="M149,44.23a.73.73,0,1,1-1.45,0,.73.73,0,1,1,1.45,0Z" style="fill:#fff"/><path d="M153.94,38.54a2.37,2.37,0,0,1-2.36,2.37,2.36,2.36,0,1,1,2.36-2.37Zm-.39,0a2,2,0,1,0-2,2A1.94,1.94,0,0,0,153.55,38.54Zm-1.45.33.55.78h-.46l-.44-.71h-.65v.71h-.4V37.3h1c.61,0,.95.3.95.81A.77.77,0,0,1,152.1,38.87Zm-.45-.26c.36,0,.57-.18.57-.49s-.21-.48-.57-.48h-.55v1Z" style="fill:#fff"/></svg>